<mxfile host="app.diagrams.net" agent="Mozilla/5.0 (Windows NT 10.0; Win64; x64) AppleWebKit/537.36 (KHTML, like Gecko) Chrome/130.0.0.0 Safari/537.36" version="24.8.0">
  <diagram name="第1頁" id="5m8-UNzSnJfzA-Qlas2P">
    <mxGraphModel dx="1877" dy="522" grid="1" gridSize="10" guides="1" tooltips="1" connect="1" arrows="1" fold="1" page="1" pageScale="1" pageWidth="827" pageHeight="1169" math="0" shadow="0">
      <root>
        <mxCell id="0" />
        <mxCell id="1" parent="0" />
        <mxCell id="c_syBMQj2-KP4MA_7eI_-2" value="idle" style="rounded=0;whiteSpace=wrap;html=1;" parent="1" vertex="1">
          <mxGeometry x="-240" y="270" width="120" height="60" as="geometry" />
        </mxCell>
        <mxCell id="c_syBMQj2-KP4MA_7eI_-3" value="r_play" style="rounded=0;whiteSpace=wrap;html=1;" parent="1" vertex="1">
          <mxGeometry x="-120" y="270" width="120" height="60" as="geometry" />
        </mxCell>
        <mxCell id="c_syBMQj2-KP4MA_7eI_-4" value="l_play" style="rounded=0;whiteSpace=wrap;html=1;" parent="1" vertex="1">
          <mxGeometry y="270" width="120" height="60" as="geometry" />
        </mxCell>
        <mxCell id="c_syBMQj2-KP4MA_7eI_-7" value="score" style="rounded=0;whiteSpace=wrap;html=1;" parent="1" vertex="1">
          <mxGeometry x="120" y="270" width="120" height="60" as="geometry" />
        </mxCell>
        <mxCell id="8gwe-J6Zt9L3QGmII9Mh-1" value="" style="endArrow=none;html=1;rounded=0;entryX=0.5;entryY=1;entryDx=0;entryDy=0;" edge="1" parent="1" target="c_syBMQj2-KP4MA_7eI_-4">
          <mxGeometry width="50" height="50" relative="1" as="geometry">
            <mxPoint x="60" y="600" as="sourcePoint" />
            <mxPoint x="40" y="350" as="targetPoint" />
          </mxGeometry>
        </mxCell>
        <mxCell id="8gwe-J6Zt9L3QGmII9Mh-3" value="" style="endArrow=none;html=1;rounded=0;entryX=0.5;entryY=1;entryDx=0;entryDy=0;" edge="1" parent="1" target="c_syBMQj2-KP4MA_7eI_-7">
          <mxGeometry width="50" height="50" relative="1" as="geometry">
            <mxPoint x="180" y="600" as="sourcePoint" />
            <mxPoint x="40" y="350" as="targetPoint" />
          </mxGeometry>
        </mxCell>
        <mxCell id="8gwe-J6Zt9L3QGmII9Mh-4" value="" style="endArrow=none;html=1;rounded=0;entryX=0.5;entryY=1;entryDx=0;entryDy=0;" edge="1" parent="1">
          <mxGeometry width="50" height="50" relative="1" as="geometry">
            <mxPoint x="-180" y="600" as="sourcePoint" />
            <mxPoint x="-180" y="330" as="targetPoint" />
          </mxGeometry>
        </mxCell>
        <mxCell id="8gwe-J6Zt9L3QGmII9Mh-5" value="" style="endArrow=none;html=1;rounded=0;entryX=0.5;entryY=1;entryDx=0;entryDy=0;" edge="1" parent="1">
          <mxGeometry width="50" height="50" relative="1" as="geometry">
            <mxPoint x="-60" y="600" as="sourcePoint" />
            <mxPoint x="-60" y="330" as="targetPoint" />
          </mxGeometry>
        </mxCell>
        <mxCell id="8gwe-J6Zt9L3QGmII9Mh-6" value="" style="shape=link;html=1;rounded=0;" edge="1" parent="1">
          <mxGeometry width="100" relative="1" as="geometry">
            <mxPoint x="-250" y="600" as="sourcePoint" />
            <mxPoint x="250" y="600" as="targetPoint" />
            <Array as="points">
              <mxPoint x="10" y="600" />
            </Array>
          </mxGeometry>
        </mxCell>
      </root>
    </mxGraphModel>
  </diagram>
</mxfile>
